<svg id="sublayer" enable-background="new 0 0 300 300" height="512" viewBox="0 0 300 300" width="512" xmlns="http://www.w3.org/2000/svg"><g><path d="m262 94h-160c-2.209 0-4 1.789-4 4v12.557l-5.572-3.85c-1.227-.844-2.814-.938-4.131-.25-1.318.691-2.143 2.055-2.143 3.543v12h-32.154v-64c0-2.211-1.791-4-4-4h-12c-2.209 0-4 1.789-4 4v80c0 2.211 1.791 4 4 4h48.154v12c0 1.488.824 2.852 2.143 3.543.584.305 1.221.457 1.857.457.797 0 1.592-.238 2.273-.707l5.572-3.85v72.557c0 1.062.422 2.078 1.172 2.828l32 32c.75.75 1.768 1.172 2.828 1.172h128c2.209 0 4-1.789 4-4v-160c.001-2.211-1.79-4-3.999-4zm-171.846 40h-48.154v-72h4v64c0 2.211 1.791 4 4 4h40.154c2.209 0 4-1.789 4-4v-8.375l20.809 14.375-20.809 14.375v-8.375c0-2.211-1.791-4-4-4zm39.846 114.344-18.344-18.344h18.344zm128 5.656h-120v-28c0-2.211-1.791-4-4-4h-28v-74.083l18.273-12.624c1.082-.75 1.727-1.98 1.727-3.293s-.645-2.543-1.727-3.293l-18.273-12.624v-14.083h152z"/><path d="m62.484 225.516c-1.562-1.562-4.094-1.562-5.656 0l-2.828 2.828-2.828-2.828c-1.562-1.562-4.094-1.562-5.656 0s-1.562 4.094 0 5.656l2.828 2.828-2.828 2.828c-1.562 1.562-1.562 4.094 0 5.656.781.781 1.805 1.172 2.828 1.172s2.047-.391 2.828-1.172l2.828-2.828 2.828 2.828c.781.781 1.805 1.172 2.828 1.172s2.047-.391 2.828-1.172c1.562-1.562 1.562-4.094 0-5.656l-2.828-2.828 2.828-2.828c1.563-1.563 1.563-4.094 0-5.656z"/><path d="m154 62c6.617 0 12-5.383 12-12s-5.383-12-12-12-12 5.383-12 12 5.383 12 12 12zm0-16c2.205 0 4 1.793 4 4s-1.795 4-4 4-4-1.793-4-4 1.795-4 4-4z"/><circle cx="190" cy="78" r="4"/></g></svg>